<svg width="16" height="16" viewBox="0 0 16 16" fill="none" xmlns="http://www.w3.org/2000/svg">
<path d="M8.75 6.44444H8.25V6.94444H8.75V6.44444ZM8.75 1H9.25C9.25 0.787034 9.1151 0.597441 8.91391 0.527629C8.71271 0.457816 8.48937 0.523107 8.35746 0.690302L8.75 1ZM2 9.55556L1.60746 9.24586C1.48879 9.39627 1.4665 9.60127 1.55008 9.77367C1.63366 9.94607 1.80841 10.0556 2 10.0556V9.55556ZM7.25 9.55556H7.75V9.05556H7.25V9.55556ZM7.25 15H6.75C6.75 15.213 6.8849 15.4026 7.08609 15.4724C7.28729 15.5422 7.51063 15.4769 7.64254 15.3097L7.25 15ZM14 6.44444L14.3925 6.75414C14.5112 6.60373 14.5335 6.39873 14.4499 6.22633C14.3663 6.05393 14.1916 5.94444 14 5.94444V6.44444ZM9.25 6.44444V1H8.25V6.44444H9.25ZM8.35746 0.690302L1.60746 9.24586L2.39254 9.86525L9.14254 1.3097L8.35746 0.690302ZM2 10.0556H7.25V9.05556H2V10.0556ZM6.75 9.55556V15H7.75V9.55556H6.75ZM7.64254 15.3097L14.3925 6.75414L13.6075 6.13475L6.85746 14.6903L7.64254 15.3097ZM14 5.94444H8.75V6.94444H14V5.94444Z" fill="currentColor"/>
</svg>
