<svg width="16" height="16" viewBox="0 0 16 16" fill="none" xmlns="http://www.w3.org/2000/svg">
<path d="M13 15L12.8143 15.4642C12.9684 15.5259 13.1429 15.507 13.2803 15.414C13.4177 15.321 13.5 15.1659 13.5 15H13ZM3 15H2.5C2.5 15.1659 2.5823 15.321 2.71969 15.414C2.85707 15.507 3.03165 15.5259 3.1857 15.4642L3 15ZM8 13L8.1857 12.5358C8.06649 12.4881 7.93351 12.4881 7.8143 12.5358L8 13ZM11.908 1.21799L11.681 1.66349L11.908 1.21799ZM12.782 2.09202L12.3365 2.31901L12.782 2.09202ZM4.09202 1.21799L4.31901 1.66349L4.09202 1.21799ZM3.21799 2.09202L3.66349 2.31901L3.21799 2.09202ZM6.2 1.5H9.8V0.5H6.2V1.5ZM12.5 4.2V15H13.5V4.2H12.5ZM3.5 15V4.2H2.5V15H3.5ZM13.1857 14.5358L8.1857 12.5358L7.8143 13.4642L12.8143 15.4642L13.1857 14.5358ZM7.8143 12.5358L2.8143 14.5358L3.1857 15.4642L8.1857 13.4642L7.8143 12.5358ZM9.8 1.5C10.3683 1.5 10.7645 1.50039 11.0729 1.52559C11.3755 1.55031 11.5493 1.5964 11.681 1.66349L12.135 0.772484C11.8388 0.62159 11.5187 0.558684 11.1543 0.528909C10.7957 0.499611 10.3518 0.5 9.8 0.5V1.5ZM13.5 4.2C13.5 3.6482 13.5004 3.20428 13.4711 2.84569C13.4413 2.48126 13.3784 2.16117 13.2275 1.86502L12.3365 2.31901C12.4036 2.45069 12.4497 2.62454 12.4744 2.92712C12.4996 3.23554 12.5 3.6317 12.5 4.2H13.5ZM11.681 1.66349C11.9632 1.8073 12.1927 2.03677 12.3365 2.31901L13.2275 1.86502C12.9878 1.39462 12.6054 1.01217 12.135 0.772484L11.681 1.66349ZM6.2 0.5C5.6482 0.5 5.20428 0.499611 4.84569 0.528909C4.48126 0.558684 4.16117 0.62159 3.86502 0.772484L4.31901 1.66349C4.45069 1.5964 4.62454 1.55031 4.92712 1.52559C5.23554 1.50039 5.6317 1.5 6.2 1.5V0.5ZM3.5 4.2C3.5 3.6317 3.50039 3.23554 3.52559 2.92712C3.55031 2.62454 3.5964 2.45069 3.66349 2.31901L2.77248 1.86502C2.62159 2.16117 2.55868 2.48126 2.52891 2.84569C2.49961 3.20428 2.5 3.6482 2.5 4.2H3.5ZM3.86502 0.772484C3.39462 1.01217 3.01217 1.39462 2.77248 1.86502L3.66349 2.31901C3.8073 2.03677 4.03677 1.8073 4.31901 1.66349L3.86502 0.772484Z" fill="currentColor"/>
</svg>
