<svg width="16" height="16" viewBox="0 0 16 16" fill="none" xmlns="http://www.w3.org/2000/svg">
<path d="M3 1V4M1.5 2.5L4.5 2.5M3 12V13.5M3 13.5V15M3 13.5H1.5M3 13.5H4.5M9 2L9.62285 3.55713C10.3198 5.29955 11.7005 6.68018 13.4429 7.37715L15 8L12.9147 9.04266C11.4921 9.75393 10.3611 10.9376 9.71514 12.3909L9 14L8.28486 12.3909C7.63892 10.9376 6.50786 9.75393 5.08533 9.04266L3 8L4.55713 7.37715C6.29955 6.68018 7.68018 5.29955 8.37715 3.55713L9 2Z" stroke="currentColor" stroke-linecap="round" stroke-linejoin="round"/>
</svg>
