<svg width="83" height="15" viewBox="0 0 83 15" fill="none" xmlns="http://www.w3.org/2000/svg">
<circle cx="0.25" cy="0.5" r="0.25" fill="#FF7A00"/>
<circle cx="9.875" cy="0.5" r="0.375" fill="#7E7F81"/>
<circle cx="19.625" cy="0.5" r="0.375" fill="#7E7F81"/>
<circle cx="29.5" cy="0.5" r="0.5" fill="#FF7A00"/>
<circle cx="39.5" cy="0.5" r="0.5" fill="#7E7F81"/>
<circle cx="49.5" cy="0.5" r="0.5" fill="#7E7F81"/>
<circle cx="59.5" cy="0.5" r="0.5" fill="#7E7F81"/>
<circle cx="69.5" cy="0.5" r="0.5" fill="#7E7F81"/>
<circle cx="0.25" cy="14.5" r="0.25" fill="#7E7F81"/>
<circle cx="9.875" cy="14.5" r="0.375" fill="#FF7A00"/>
<circle cx="19.625" cy="14.5" r="0.375" fill="#7E7F81"/>
<circle cx="29.5" cy="14.5" r="0.5" fill="#7E7F81"/>
<circle cx="39.5" cy="14.5" r="0.5" fill="#7E7F81"/>
<circle cx="49.5" cy="14.5" r="0.5" fill="#7E7F81"/>
<circle cx="59.5" cy="14.5" r="0.5" fill="#7E7F81"/>
<circle cx="69.5" cy="14.5" r="0.5" fill="#7E7F81"/>
<circle cx="12.375" cy="7.5" r="0.375" fill="#FF7A00"/>
<circle cx="22.25" cy="7.5" r="0.5" fill="#FF7A00"/>
<circle cx="32.25" cy="7.5" r="0.5" fill="#7E7F81"/>
<circle cx="42.25" cy="7.5" r="0.5" fill="#7E7F81"/>
<circle cx="52.25" cy="7.5" r="0.5" fill="#7E7F81"/>
<circle cx="62.25" cy="7.5" r="0.5" fill="#7E7F81"/>
<circle cx="72.25" cy="7.5" r="0.5" fill="#7E7F81"/>
<circle cx="82.25" cy="7.5" r="0.5" fill="#7E7F81"/>
</svg>
