<svg width="83" height="15" viewBox="0 0 83 15" fill="none" xmlns="http://www.w3.org/2000/svg">
<circle cx="82.5" cy="14.5" r="0.25" transform="rotate(-180 82.5 14.5)" fill="#FF7A00"/>
<circle cx="72.875" cy="14.5" r="0.375" transform="rotate(-180 72.875 14.5)" fill="#7E7F81"/>
<circle cx="63.125" cy="14.5" r="0.375" transform="rotate(-180 63.125 14.5)" fill="#7E7F81"/>
<circle cx="53.25" cy="14.5" r="0.5" transform="rotate(-180 53.25 14.5)" fill="#FF7A00"/>
<circle cx="43.25" cy="14.5" r="0.5" transform="rotate(-180 43.25 14.5)" fill="#7E7F81"/>
<circle cx="33.25" cy="14.5" r="0.5" transform="rotate(-180 33.25 14.5)" fill="#7E7F81"/>
<circle cx="23.25" cy="14.5" r="0.5" transform="rotate(-180 23.25 14.5)" fill="#7E7F81"/>
<circle cx="13.25" cy="14.5" r="0.5" transform="rotate(-180 13.25 14.5)" fill="#7E7F81"/>
<circle cx="82.5" cy="0.5" r="0.25" transform="rotate(-180 82.5 0.5)" fill="#7E7F81"/>
<circle cx="72.875" cy="0.5" r="0.375" transform="rotate(-180 72.875 0.5)" fill="#FF7A00"/>
<circle cx="63.125" cy="0.5" r="0.375" transform="rotate(-180 63.125 0.5)" fill="#7E7F81"/>
<circle cx="53.25" cy="0.5" r="0.5" transform="rotate(-180 53.25 0.5)" fill="#7E7F81"/>
<circle cx="43.25" cy="0.5" r="0.5" transform="rotate(-180 43.25 0.5)" fill="#7E7F81"/>
<circle cx="33.25" cy="0.5" r="0.5" transform="rotate(-180 33.25 0.5)" fill="#7E7F81"/>
<circle cx="23.25" cy="0.5" r="0.5" transform="rotate(-180 23.25 0.5)" fill="#7E7F81"/>
<circle cx="13.25" cy="0.5" r="0.5" transform="rotate(-180 13.25 0.5)" fill="#7E7F81"/>
<circle cx="70.375" cy="7.5" r="0.375" transform="rotate(-180 70.375 7.5)" fill="#FF7A00"/>
<circle cx="60.5" cy="7.5" r="0.5" transform="rotate(-180 60.5 7.5)" fill="#FF7A00"/>
<circle cx="50.5" cy="7.5" r="0.5" transform="rotate(-180 50.5 7.5)" fill="#7E7F81"/>
<circle cx="40.5" cy="7.5" r="0.5" transform="rotate(-180 40.5 7.5)" fill="#7E7F81"/>
<circle cx="30.5" cy="7.5" r="0.5" transform="rotate(-180 30.5 7.5)" fill="#7E7F81"/>
<circle cx="20.5" cy="7.5" r="0.5" transform="rotate(-180 20.5 7.5)" fill="#7E7F81"/>
<circle cx="10.5" cy="7.5" r="0.5" transform="rotate(-180 10.5 7.5)" fill="#7E7F81"/>
<circle cx="0.5" cy="7.5" r="0.5" transform="rotate(-180 0.5 7.5)" fill="#7E7F81"/>
</svg>
